<svg id="environment_icon" xmlns="http://www.w3.org/2000/svg" width="50" height="50" viewBox="0 0 50 50">
  <metadata><?xpacket begin="﻿" id="W5M0MpCehiHzreSzNTczkc9d"?>
<x:xmpmeta xmlns:x="adobe:ns:meta/" x:xmptk="Adobe XMP Core 5.6-c142 79.160924, 2017/07/13-01:06:39        ">
   <rdf:RDF xmlns:rdf="http://www.w3.org/1999/02/22-rdf-syntax-ns#">
      <rdf:Description rdf:about=""/>
   </rdf:RDF>
</x:xmpmeta>
                                                                                                    
                                                                                                    
                                                                                                    
                                                                                                    
                                                                                                    
                                                                                                    
                                                                                                    
                                                                                                    
                                                                                                    
                                                                                                    
                                                                                                    
                                                                                                    
                                                                                                    
                                                                                                    
                                                                                                    
                                                                                                    
                                                                                                    
                                                                                                    
                                                                                                    
                                                                                                    
                           
<?xpacket end="w"?></metadata>
<defs>
    <style>
      .cls-1 {
        fill: #8a8e8c;
      }

      .cls-2 {
        fill: #fff;
        fill-rule: evenodd;
      }
    </style>
  </defs>
  <rect id="圓角矩形_617_拷貝" data-name="圓角矩形 617 拷貝" class="cls-1" width="50" height="50" rx="10" ry="10"/>
  <path id="形狀_1804" data-name="形狀 1804" class="cls-2" d="M2821.94,483h3.03a5.9,5.9,0,0,0,.86.268,16.44,16.44,0,0,1,13.82,12.787,18.709,18.709,0,0,1,.17,6.033A16.431,16.431,0,0,1,2823.3,516c-8.2-.123-15.27-6.309-16.18-14.144a16.461,16.461,0,0,1,12.35-18.262C2820.29,483.389,2821.12,483.2,2821.94,483Zm3.39,18.352c1.17,0,2.26.059,3.34-.038a1.164,1.164,0,0,0,.78-0.807,9.793,9.793,0,0,0,0-2.537,1.14,1.14,0,0,0-.75-0.824c-1.11-.1-2.25-0.039-3.37-0.039v4.245Zm-7.61-4.186c-0.82,3.853-.46,4.311,3.14,4.186a6.175,6.175,0,0,0,.76-0.125v-4.061h-3.9Zm15.24,0.144v3.934h3.39C2836.79,496.629,2836.68,496.83,2832.96,497.31Zm-18.96-.421c-1.25.242-2.86,0.114-3.24,0.738a3.7,3.7,0,0,0-.01,3.38c0.38,0.581,2.06.313,3.25,0.432v-4.55Zm11.34,7.964v6.507c0.14,0.05.28,0.1,0.41,0.151,1.04-2.138,2.07-4.276,3.22-6.658h-3.63Zm-4.14,6.608,0.42-.168v-6.434h-3.61C2819.15,507.217,2820.17,509.339,2821.2,511.461Zm7.76-17.931c-1.14-2.345-2.18-4.473-3.21-6.6l-0.42.176v6.425h3.63Zm-7.32-6.414-0.48-.147c-1.01,2.125-2.02,4.251-3.11,6.549h3.59v-6.4Zm-4.95,23.527c-0.58-1.508-1.05-2.648-1.45-3.814-0.79-2.329-.98-2.446-3.57-1.806A12.9,12.9,0,0,0,2816.69,510.643Zm18.84-5.341-0.42-.651c-0.94.154-2.43,0-2.72,0.518a31.921,31.921,0,0,0-1.9,5.16c0.14,0.1.28,0.195,0.43,0.293Q2833.215,507.963,2835.53,505.3Zm-4.28-16.446-0.33.336c0.5,1.452,1,2.9,1.49,4.325h2.98C2833.82,491.752,2832.54,490.3,2831.25,488.856Zm-19.62,4.662h2.96c0.48-1.448.97-2.9,1.46-4.36-0.14-.082-0.27-0.164-0.4-0.247Z" transform="translate(-2798 -474)"/>
</svg>
